<svg xmlns="http://www.w3.org/2000/svg" width="100" height="100" viewBox="0 0 100 100">
  <!-- Background circle -->
  <circle cx="50" cy="50" r="45" fill="#ecf0f1"/>
  
  <!-- Data visualization elements -->
  <g transform="translate(20, 20)">
    <!-- Bar chart -->
    <rect x="0" y="30" width="10" height="30" fill="#3498db" rx="2"/>
    <rect x="15" y="20" width="10" height="40" fill="#3498db" rx="2"/>
    <rect x="30" y="10" width="10" height="50" fill="#3498db" rx="2"/>
    <rect x="45" y="25" width="10" height="35" fill="#3498db" rx="2"/>
    <rect x="60" y="5" width="10" height="55" fill="#3498db" rx="2"/>
    
    <!-- Chart base line -->
    <line x1="0" y1="60" x2="70" y2="60" stroke="#2c3e50" stroke-width="2"/>
    
    <!-- Data points and trend line -->
    <circle cx="5" cy="15" r="3" fill="#e74c3c"/>
    <circle cx="20" cy="25" r="3" fill="#e74c3c"/>
    <circle cx="35" cy="10" r="3" fill="#e74c3c"/>
    <circle cx="50" cy="20" r="3" fill="#e74c3c"/>
    <circle cx="65" cy="5" r="3" fill="#e74c3c"/>
    
    <path d="M5,15 L20,25 L35,10 L50,20 L65,5" stroke="#e74c3c" stroke-width="2" fill="none"/>
  </g>
  
  <!-- Magnifying glass to represent analysis -->
  <g transform="translate(60, 15) rotate(15)">
    <circle cx="0" cy="0" r="12" fill="none" stroke="#2c3e50" stroke-width="3"/>
    <line x1="8" y1="8" x2="15" y2="15" stroke="#2c3e50" stroke-width="3" stroke-linecap="round"/>
  </g>
</svg>